<?xml version="1.0" encoding="UTF-8"?>
<svg version="1.1" xmlns="http://www.w3.org/2000/svg" width="306" height="282">
<path d="M0 0 C63.36 0 126.72 0 192 0 C192 12.87 192 25.74 192 39 C194.31 39.33 196.62 39.66 199 40 C204.52971372 42.98604541 208.7692527 46.91261182 211.12643433 52.82571411 C212.00600119 56.02180658 212.24173932 58.60865338 212.22705078 61.91357422 C212.22689972 63.05430389 212.22674866 64.19503357 212.22659302 65.37033081 C212.21110916 67.19408737 212.21110916 67.19408737 212.1953125 69.0546875 C212.19106766 70.93971481 212.19106766 70.93971481 212.18673706 72.86282349 C212.17746123 76.18700864 212.15952381 79.51091424 212.1373291 82.83502197 C212.11678812 86.23374021 212.10771778 89.63248744 212.09765625 93.03125 C212.07563379 99.68757667 212.04218433 106.34377221 212 113 C212.57443848 112.98952637 213.14887695 112.97905273 213.74072266 112.96826172 C216.36876977 112.92642901 218.99674654 112.900588 221.625 112.875 C222.52863281 112.85824219 223.43226563 112.84148437 224.36328125 112.82421875 C232.16752709 112.76725345 237.72152807 114.08641327 244 119 C247.44754259 123.5656645 249.1180074 126.97519137 249.14717102 132.67277527 C249.15790398 134.11306091 249.15790398 134.11306091 249.16885376 135.58244324 C249.17154266 136.63442398 249.17423157 137.68640472 249.17700195 138.77026367 C249.18357315 139.87951202 249.19014435 140.98876038 249.19691467 142.13162231 C249.21665954 145.81040512 249.2283134 149.48914707 249.23828125 153.16796875 C249.24235678 154.42397699 249.2464323 155.67998524 249.25063133 156.97405434 C249.26934578 162.93705447 249.2839097 168.90004162 249.2922433 174.86306399 C249.30200571 181.73417108 249.32830022 188.60495517 249.36874419 195.47594851 C249.40261679 201.43624788 249.41439446 207.39646872 249.41844749 213.35686684 C249.42331699 215.88737489 249.43494119 218.41787941 249.45348549 220.9483242 C249.47784909 224.49339815 249.47691631 228.03763151 249.4699707 231.58276367 C249.48278076 232.62462326 249.49559082 233.66648285 249.50878906 234.73991394 C249.45628248 242.10713125 248.22753028 247.66314088 243.00221252 253.06546021 C237.1712624 256.89190919 232.63402158 257.87506113 225.71484375 257.8046875 C224.77314835 257.81839386 223.83145294 257.83210022 222.86122131 257.84622192 C219.88615083 257.88328184 216.91276702 257.87982332 213.9375 257.875 C211.90687523 257.8931436 209.87627241 257.91395148 207.84570312 257.9375 C202.8961671 257.99408922 197.95095586 257.99574477 193 258 C192.67 265.92 192.34 273.84 192 282 C128.64 282 65.28 282 0 282 C0 273.75 0 265.5 0 257 C-3.07183594 257.06960938 -6.14367188 257.13921875 -9.30859375 257.2109375 C-12.30717253 257.25782492 -15.30570938 257.29420238 -18.30444336 257.32958984 C-20.3772226 257.35963246 -22.4498761 257.40047967 -24.5222168 257.45263672 C-27.51382575 257.52600631 -30.50374451 257.55958173 -33.49609375 257.5859375 C-34.41208847 257.61690521 -35.32808319 257.64787292 -36.27183533 257.67977905 C-42.23517833 257.68284927 -46.04559527 256.35426311 -51.00990295 253.07315063 C-57.07096691 246.75913765 -57.58361203 240.09486131 -57.51757812 231.66210938 C-57.5245874 230.55213089 -57.53159668 229.4421524 -57.53881836 228.29853821 C-57.55635556 224.64668411 -57.54478997 220.99561134 -57.53125 217.34375 C-57.53394612 214.796019 -57.53782954 212.24828901 -57.54284668 209.70056152 C-57.54873599 204.36781034 -57.54058126 199.03533655 -57.52148438 193.70263672 C-57.49971864 187.55401279 -57.50677126 181.40591957 -57.52879 175.25730848 C-57.54919049 169.32097464 -57.54695331 163.3848044 -57.53526306 157.44844055 C-57.53259996 154.93190943 -57.53585082 152.41536472 -57.54518127 149.89884949 C-57.55537102 146.37816802 -57.53981 142.85849708 -57.51757812 139.33789062 C-57.52567505 138.30388626 -57.53377197 137.2698819 -57.54211426 136.20454407 C-57.46173712 129.31317291 -56.35951956 123.71400588 -51.62360382 118.47837067 C-45.14894648 112.63118731 -38.35510136 112.73002531 -30.125 112.875 C-28.66320313 112.88853516 -28.66320313 112.88853516 -27.171875 112.90234375 C-24.78099272 112.92578377 -22.39062739 112.95859558 -20 113 C-20.00444122 112.29922333 -20.00888245 111.59844666 -20.01345825 110.87643433 C-20.05361588 104.25605685 -20.08402542 97.63571362 -20.10362434 91.01524162 C-20.11403924 87.61199603 -20.12815619 84.2088515 -20.15087891 80.80566406 C-20.176867 76.88868439 -20.18649178 72.97174493 -20.1953125 69.0546875 C-20.20563507 67.83884979 -20.21595764 66.62301208 -20.22659302 65.37033081 C-20.22681961 63.6592363 -20.22681961 63.6592363 -20.22705078 61.91357422 C-20.231492 60.91429901 -20.23593323 59.9150238 -20.24050903 58.88546753 C-19.62940732 51.55387535 -16.29561114 46.83651582 -11 42 C-7.35069701 39.71158292 -4.35788583 39 0 39 C0 26.13 0 13.26 0 0 Z M8 9 C8 43.32 8 77.64 8 113 C66.08 113 124.16 113 184 113 C184 78.68 184 44.36 184 9 C125.92 9 67.84 9 8 9 Z M192 47 C192 68.78 192 90.56 192 113 C195.63 113 199.26 113 203 113 C203.11317745 105.54143173 203.204816 98.08333637 203.25906086 90.62409019 C203.28510226 87.16003775 203.32039692 83.69660562 203.37719727 80.23291016 C203.44215686 76.24649606 203.46622587 72.26032894 203.48828125 68.2734375 C203.51408768 67.03572601 203.5398941 65.79801453 203.56648254 64.52279663 C203.71894387 57.48837114 203.71894387 57.48837114 200.84448242 51.29541016 C197.75761526 48.53067586 197.75761526 48.53067586 192 47 Z M-8.64135742 51.25634766 C-12.55118318 56.14766356 -11.61222825 62.32876989 -11.48828125 68.2734375 C-11.48120651 69.55231842 -11.47413177 70.83119934 -11.46684265 72.14883423 C-11.4436463 75.53281413 -11.39880807 78.91507924 -11.34332275 82.29858398 C-11.29197788 85.75749976 -11.26929641 89.21659342 -11.24414062 92.67578125 C-11.18907629 99.45105248 -11.10280046 106.2252917 -11 113 C-7.37 113 -3.74 113 0 113 C0 91.22 0 69.44 0 47 C-3.52672861 47 -6.09082412 49.07758541 -8.64135742 51.25634766 Z M-47 126 C-53.44219805 142.10549512 -49 160.65385089 -49 178 C46.7 178 142.4 178 241 178 C244.00597933 149.48431142 244.00597933 149.48431142 237 124 C234.09355991 121.97749662 231.7422083 121.74868398 228.24540901 121.74273109 C227.28669462 121.7362822 226.32798023 121.72983331 225.34021389 121.723189 C224.28983815 121.7262862 223.2394624 121.7293834 222.15725708 121.73257446 C221.03917943 121.72804335 219.92110178 121.72351224 218.76914299 121.71884382 C215.00897692 121.70614664 211.24895471 121.70782363 207.48876953 121.70947266 C204.79843605 121.70349075 202.10811398 121.69674294 199.41778564 121.68911743 C192.86035678 121.67250046 186.30296387 121.66700758 179.74551572 121.66589268 C174.41575603 121.66494256 169.08600822 121.66083409 163.75625229 121.65449142 C148.64779005 121.63687734 133.53935624 121.62765285 118.43088366 121.62915237 C117.61628483 121.62923228 116.80168599 121.6293122 115.96240234 121.62939453 C114.73901348 121.62951717 114.73901348 121.62951717 113.49090968 121.62964229 C100.27112182 121.63045531 87.05144786 121.6113142 73.83169295 121.5831178 C60.26008028 121.55439915 46.68852318 121.54057693 33.11687934 121.54230535 C25.49647136 121.54296959 17.87618279 121.5374624 10.25580215 121.51594925 C3.7679593 121.49775085 -2.71971001 121.49337899 -9.20756732 121.5069681 C-12.51776433 121.51350462 -15.82755858 121.51142309 -19.13773727 121.4962616 C-22.72655454 121.48088638 -26.31449224 121.49006727 -29.90328979 121.50552368 C-30.9492041 121.49523656 -31.99511841 121.48494943 -33.07272708 121.47435057 C-38.82615605 121.52924843 -42.60464991 121.87555301 -47 126 Z M-49 186 C-51.97772264 217.05704693 -51.97772264 217.05704693 -46 246 C-41.50680758 250.16165589 -35.93748059 249.33694748 -30.1875 249.1875 C-26.825625 249.125625 -23.46375 249.06375 -20 249 C-19.67 238.44 -19.34 227.88 -19 217 C56.9 217 132.8 217 211 217 C211.33 227.56 211.66 238.12 212 249 C215.34125 249.0825 218.6825 249.165 222.125 249.25 C223.16672363 249.28641602 224.20844727 249.32283203 225.28173828 249.36035156 C230.98388916 249.42835182 234.64626201 249.08945358 239 245 C246.30821193 226.72947016 241 205.67796286 241 186 C145.3 186 49.6 186 -49 186 Z M-12 225 C-12 232.92 -12 240.84 -12 249 C-8.04 249 -4.08 249 0 249 C0 241.08 0 233.16 0 225 C-3.96 225 -7.92 225 -12 225 Z M8 225 C8 240.84 8 256.68 8 273 C66.08 273 124.16 273 184 273 C184 257.16 184 241.32 184 225 C125.92 225 67.84 225 8 225 Z M192 225 C192 232.92 192 240.84 192 249 C195.96 249 199.92 249 204 249 C204 241.08 204 233.16 204 225 C200.04 225 196.08 225 192 225 Z " fill="#5E6E82" transform="translate(57,0)"/>
<path d="M0 0 C48.18 0 96.36 0 146 0 C146 2.64 146 5.28 146 8 C144.24802733 9.75197267 141.79911392 9.12613706 139.41967773 9.12698364 C138.20811005 9.12980347 136.99654236 9.13262329 135.7482605 9.13552856 C134.39337143 9.13358397 133.03848252 9.13153578 131.68359375 9.12939453 C130.26636714 9.13074854 128.84914087 9.13252847 127.43191528 9.13470459 C123.57251759 9.13927899 119.71314651 9.13748934 115.85374832 9.1343255 C111.8236407 9.13180193 107.79353544 9.13413943 103.76342773 9.13571167 C96.9942992 9.13753338 90.22518157 9.13512703 83.45605469 9.13037109 C75.61883515 9.12492847 67.78164163 9.12669113 59.94442272 9.1321975 C53.22766744 9.1367286 46.51092002 9.13737919 39.7941637 9.13475883 C35.77723069 9.13319604 31.76030992 9.13300234 27.74337769 9.13629532 C23.96778006 9.139174 20.19221613 9.13719841 16.41662216 9.13140106 C15.02701753 9.13007344 13.63741008 9.13046761 12.24780655 9.13266373 C10.35864612 9.13537513 8.46947953 9.1313805 6.58032227 9.12698364 C5.52063736 9.12660662 4.46095245 9.12622959 3.36915588 9.12584114 C1 9 1 9 0 8 C0 5.36 0 2.72 0 0 Z " fill="#5E6E82" transform="translate(80,235)"/>
<path d="M0 0 C1.21156769 -0.00281982 2.42313538 -0.00563965 3.67141724 -0.00854492 C5.0263063 -0.00660033 6.38119522 -0.00455214 7.73608398 -0.00241089 C9.1533106 -0.0037649 10.57053686 -0.00554483 11.98776245 -0.00772095 C15.84716015 -0.01229535 19.70653123 -0.0105057 23.56592941 -0.00734186 C27.59603703 -0.00481829 31.6261423 -0.00715579 35.65625 -0.00872803 C42.42537853 -0.01054973 49.19449617 -0.00814339 55.96362305 -0.00338745 C63.80084258 0.00205517 71.63803611 0.00029252 79.47525501 -0.00521386 C86.19201029 -0.00974496 92.90875772 -0.01039555 99.62551403 -0.00777519 C103.64244704 -0.0062124 107.65936781 -0.0060187 111.67630005 -0.00931168 C115.45189767 -0.01219035 119.22746161 -0.01021477 123.00305557 -0.00441742 C124.39266021 -0.0030898 125.78226765 -0.00348397 127.17187119 -0.00568008 C129.06103162 -0.00839149 130.95019821 -0.00439686 132.83935547 0 C133.89904037 0.00037703 134.95872528 0.00075405 136.05052185 0.0011425 C138.41967773 0.12698364 138.41967773 0.12698364 139.41967773 1.12698364 C139.54467773 4.62698364 139.54467773 4.62698364 139.41967773 8.12698364 C137.66770507 9.87895631 135.21879165 9.2531207 132.83935547 9.25396729 C131.62778778 9.25678711 130.41622009 9.25960693 129.16793823 9.26251221 C127.81304917 9.26056761 126.45816025 9.25851943 125.10327148 9.25637817 C123.68604487 9.25773218 122.26881861 9.25951211 120.85159302 9.26168823 C116.99219532 9.26626263 113.13282424 9.26447298 109.27342606 9.26130915 C105.24331844 9.25878558 101.21321317 9.26112307 97.18310547 9.26269531 C90.41397694 9.26451702 83.6448593 9.26211068 76.87573242 9.25735474 C69.03851289 9.25191211 61.20131936 9.25367477 53.36410046 9.25918114 C46.64734518 9.26371225 39.93059775 9.26436283 33.21384144 9.26174247 C29.19690843 9.26017968 25.17998766 9.25998598 21.16305542 9.26327896 C17.3874578 9.26615764 13.61189386 9.26418205 9.8362999 9.2583847 C8.44669526 9.25705709 7.05708782 9.25745125 5.66748428 9.25964737 C3.77832385 9.26235877 1.88915726 9.25836414 0 9.25396729 C-1.05968491 9.25359026 -2.11936981 9.25321323 -3.21116638 9.25282478 C-5.58032227 9.12698364 -5.58032227 9.12698364 -6.58032227 8.12698364 C-6.70532227 4.62698364 -6.70532227 4.62698364 -6.58032227 1.12698364 C-4.8283496 -0.62498903 -2.37943618 0.00084658 0 0 Z " fill="#5E6E82" transform="translate(86.580322265625,251.87301635742188)"/>
<path d="M0 0 C1.27423828 -0.00193359 1.27423828 -0.00193359 2.57421875 -0.00390625 C3.91419922 0.00189453 3.91419922 0.00189453 5.28125 0.0078125 C6.17457031 0.00394531 7.06789062 0.00007812 7.98828125 -0.00390625 C8.83777344 -0.00261719 9.68726563 -0.00132812 10.5625 0 C11.34689453 0.00112793 12.13128906 0.00225586 12.93945312 0.00341797 C14.78125 0.1328125 14.78125 0.1328125 15.78125 1.1328125 C15.78125 3.4428125 15.78125 5.7528125 15.78125 8.1328125 C8.85125 8.1328125 1.92125 8.1328125 -5.21875 8.1328125 C-5.21875 0.00750437 -5.21875 0.00750437 0 0 Z " fill="#5E6E82" transform="translate(238.21875,140.8671875)"/>
<path d="M0 0 C6.6 0 13.2 0 20 0 C20 2.64 20 5.28 20 8 C13.4 8 6.8 8 0 8 C0 5.36 0 2.72 0 0 Z " fill="#5E6E82" transform="translate(264,141)"/>
</svg>
