<?xml version="1.0" encoding="UTF-8"?>
<svg version="1.1" xmlns="http://www.w3.org/2000/svg" width="306" height="282">
<path d="M0 0 C1.79923668 1.56880813 3.58602368 3.14737559 5.3515625 4.75390625 C4.69555819 11.29093168 -0.0462987 14.35836665 -4.81152344 18.28564453 C-34.74701864 42.21335162 -69.40956199 60.51710945 -106.6484375 69.75390625 C-107.87095215 70.07149902 -107.87095215 70.07149902 -109.11816406 70.39550781 C-132.47271554 76.28313146 -161.22104481 76.65379071 -184.6484375 70.75390625 C-185.48681152 70.54459473 -186.32518555 70.3352832 -187.18896484 70.11962891 C-203.74138986 65.87410766 -219.49096656 60.11324101 -234.84130859 52.63183594 C-236.60043382 51.77722714 -238.36848671 50.94107225 -240.13671875 50.10546875 C-259.58016299 40.72505284 -277.77908797 28.22840742 -294.01171875 14.03125 C-296.16878382 12.16818491 -298.34194871 10.42487794 -300.6484375 8.75390625 C-299.67391568 1.32737788 -289.966266 -4.25641001 -284.39453125 -8.58984375 C-273.3202566 -17.0232393 -261.7692592 -24.41580141 -249.6484375 -31.24609375 C-248.86500977 -31.68937012 -248.08158203 -32.13264648 -247.27441406 -32.58935547 C-163.07366334 -79.75655411 -71.67852123 -60.78930635 0 0 Z M-187.6484375 -48.24609375 C-188.89584717 -47.92463379 -188.89584717 -47.92463379 -190.16845703 -47.59667969 C-227.10571861 -37.8647914 -260.58129358 -18.84136937 -289.6484375 5.75390625 C-288.10363503 9.92487291 -285.06955219 12.13854038 -281.6484375 14.75390625 C-280.72780518 15.46522705 -280.72780518 15.46522705 -279.78857422 16.19091797 C-267.11422091 25.84110429 -253.69907989 34.27064345 -239.6484375 41.75390625 C-239.03387695 42.08841797 -238.41931641 42.42292969 -237.78613281 42.76757812 C-192.93224471 67.07824331 -143.55381 72.73971476 -94.6484375 58.75390625 C-73.95783176 52.5336917 -53.68300522 42.61362198 -35.6484375 30.75390625 C-35.01180176 30.33818359 -34.37516602 29.92246094 -33.71923828 29.49414062 C-23.56214355 22.81346931 -14.03015351 15.47764659 -4.6484375 7.75390625 C-5.72503553 4.52411217 -6.24303075 4.01681523 -8.83203125 2.0390625 C-9.50258545 1.52400146 -10.17313965 1.00894043 -10.86401367 0.47827148 C-11.59724854 -0.07014404 -12.3304834 -0.61855957 -13.0859375 -1.18359375 C-13.84946533 -1.75843506 -14.61299316 -2.33327637 -15.3996582 -2.92553711 C-49.74563278 -28.53323881 -92.63638273 -52.01014657 -136.65234375 -52.484375 C-137.4043103 -52.49416885 -138.15627686 -52.50396271 -138.93103027 -52.51405334 C-155.54318987 -52.68578756 -171.47942015 -52.52871596 -187.6484375 -48.24609375 Z " fill="#5E6E82" transform="translate(300.6484375,140.24609375)"/>
<path d="M0 0 C1.3303125 0.86625 1.3303125 0.86625 2.6875 1.75 C11.15955297 9.99307856 16.00342998 19.84790839 16.47094727 31.63256836 C16.63462287 44.97006737 13.05540121 54.95535328 4 65 C-6.04144923 74.1930933 -16.79078145 77.80744206 -30.32421875 77.37890625 C-42.92571882 76.07992059 -53.4804297 69.93831246 -61.46875 60.16015625 C-67.71560095 51.34763438 -71.2421176 40.88793712 -70 30 C-67.8332656 17.65977048 -62.77164086 7.18930678 -52.83203125 -0.7265625 C-35.95130712 -12.52273117 -16.68238077 -11.33429513 0 0 Z M-55 12 C-60.81701434 21.44958026 -63.53329131 30.50192783 -61.5390625 41.5546875 C-58.96684602 51.26858738 -53.36665987 59.37363988 -45 65 C-36.24609904 69.75694297 -26.29744287 70.42647914 -16.58203125 68.52734375 C-14.56602753 67.85534251 -12.84927724 67.04541583 -11 66 C-9.89591797 65.39671875 -9.89591797 65.39671875 -8.76953125 64.78125 C-1.25712953 60.25115851 4.78717399 53.69736743 7.50390625 45.2265625 C10.0220516 33.92465032 9.12645104 23.89969572 3 14 C-2.20938082 6.26783728 -10.07071528 1.44942972 -19 -1 C-33.12189794 -2.5210661 -45.70361727 0.79289828 -55 12 Z " fill="#5E6E82" transform="translate(180,113)"/>
<path d="M0 0 C0 2.64 0 5.28 0 8 C-0.60328125 8.15855469 -1.2065625 8.31710938 -1.828125 8.48046875 C-7.01524808 9.99477404 -10.18193704 11.12258334 -13 16 C-14.12972972 18.64258518 -15.07563791 21.27313183 -16 24 C-18.31 24 -20.62 24 -23 24 C-23.49782502 18.02609971 -22.41246522 13.96725706 -19 9 C-14.08507547 3.34656349 -7.55650115 0 0 0 Z " fill="#5E6E82" transform="translate(154,124)"/>
<path d="M0 0 C2.5 2.125 2.5 2.125 4 5 C3.936318 8.18409977 3.51040601 10.14932332 1.875 12.875 C-1.16832808 14.70099685 -3.54249555 14.42460581 -7 14 C-9.4375 12.375 -9.4375 12.375 -11 10 C-11.60605429 6.36367425 -11.47161336 4.71685231 -9.4375 1.625 C-6.04129157 -0.63913895 -3.99900698 -0.64269755 0 0 Z " fill="#5E6E82" transform="translate(157,140)"/>
</svg>
